<svg xmlns="http://www.w3.org/2000/svg" viewBox="0 0 64 64">
  <defs>
    <linearGradient id="g" x1="0" y1="0" x2="1" y2="1">
      <stop offset="0%" stop-color="#ffffff" stop-opacity="0.95"/>
      <stop offset="100%" stop-color="#cfcfcf" stop-opacity="0.95"/>
    </linearGradient>
  </defs>
  <rect width="64" height="64" rx="14" fill="#0b0b0e"/>
  <g transform="translate(8,8)">
    <path d="M24 0c13.255 0 24 10.745 24 24s-10.745 24-24 24S0 37.255 0 24 10.745 0 24 0zm0 6C14.059 6 6 14.059 6 24s8.059 18 18 18c8.02 0 14.82-5.02 17.197-12H34a3 3 0 1 1 0-6h9.92A17.95 17.95 0 0 0 42 18.803V22a3 3 0 1 1-6 0v-9.197C29.02 9.82 22.02 6 24 6z" fill="url(#g)"/>
  </g>
</svg>

